HIERARCHY
ROOT Hips
{
	OFFSET	0.00	0.00	0.00
	CHANNELS 6 Xposition Yposition Zposition Zrotation Xrotation Yrotation
	JOINT LeftUpLeg
	{
		OFFSET	 0.126116	-0.014019	-0.065224
		CHANNELS 3 Zrotation Xrotation Yrotation
		JOINT LeftLeg
		{
			OFFSET	 0.000000	 0.000000	 0.569914
			CHANNELS 3 Zrotation Xrotation Yrotation
			JOINT LeftFoot
			{
				OFFSET	 0.000000	 0.000000	 0.544423
				CHANNELS 3 Zrotation Xrotation Yrotation
				JOINT LeftToeBase
				{
					OFFSET	 0.000000	 0.000000	 0.207117
					CHANNELS 3 Zrotation Xrotation Yrotation
					End Site
					{
						OFFSET	 0.000000	 0.000000	 0.207117
					}
				}
			}
		}
	}
	JOINT RightUpLeg
	{
		OFFSET	-0.124023	-0.008373	-0.065224
		CHANNELS 3 Zrotation Xrotation Yrotation
		JOINT RightLeg
		{
			OFFSET	 0.000000	 0.000000	 0.570047
			CHANNELS 3 Zrotation Xrotation Yrotation
			JOINT RightFoot
			{
				OFFSET	 0.000000	 0.000000	 0.544354
				CHANNELS 3 Zrotation Xrotation Yrotation
				JOINT RightToeBase
				{
					OFFSET	 0.000000	 0.000000	 0.207540
					CHANNELS 3 Zrotation Xrotation Yrotation
					End Site
					{
						OFFSET	 0.000000	 0.000000	 0.207540
					}
				}
			}
		}
	}
	JOINT Spine
	{
		OFFSET	 0.000184	-0.007763	 0.117403
		CHANNELS 3 Zrotation Xrotation Yrotation
		JOINT Spine1
		{
			OFFSET	 0.000000	 0.000000	 0.137269
			CHANNELS 3 Zrotation Xrotation Yrotation
			JOINT Spine2
			{
				OFFSET	 0.000000	 0.000000	 0.156879
				CHANNELS 3 Zrotation Xrotation Yrotation
				JOINT LeftShoulder
				{
					OFFSET	 0.080501	-0.002496	 0.160144
					CHANNELS 3 Zrotation Xrotation Yrotation
					JOINT LeftArm
					{
						OFFSET	 0.000000	 0.000000	 0.164363
						CHANNELS 3 Zrotation Xrotation Yrotation
						JOINT LeftForeArm
						{
							OFFSET	 0.000000	 0.000000	 0.364576
							CHANNELS 3 Zrotation Xrotation Yrotation
							JOINT LeftHand
							{
								OFFSET	 0.000000	 0.000000	 0.360812
								CHANNELS 3 Zrotation Xrotation Yrotation
								JOINT LeftHandIndex1
								{
									OFFSET	 0.000000	 0.000000	 0.086006
									CHANNELS 3 Zrotation Xrotation Yrotation
									JOINT LeftHandIndex2
									{
										OFFSET	 0.000000	 0.000000	 0.047236
										CHANNELS 3 Zrotation Xrotation Yrotation
										JOINT LeftHandIndex3
										{
											OFFSET	-0.004284	-0.000551	 0.038166
											CHANNELS 3 Zrotation Xrotation Yrotation
											End Site
											{
												OFFSET	-0.004284	-0.000551	 0.038166
											}
										}
									}
								}
							}
						}
					}
				}
				JOINT Neck
				{
					OFFSET	 0.000000	 0.000000	 0.176489
					CHANNELS 3 Zrotation Xrotation Yrotation
					JOINT Head
					{
						OFFSET	 0.000000	-0.001747	 0.077940
						CHANNELS 3 Zrotation Xrotation Yrotation
						End Site
						{
							OFFSET	 0.000000	-0.001747	 0.077940
						}
					}
				}
				JOINT RightShoulder
				{
					OFFSET	-0.080363	 0.000306	 0.159706
					CHANNELS 3 Zrotation Xrotation Yrotation
					JOINT RightArm
					{
						OFFSET	 0.000000	 0.000000	 0.164196
						CHANNELS 3 Zrotation Xrotation Yrotation
						JOINT RightForeArm
						{
							OFFSET	 0.000000	 0.000000	 0.365611
							CHANNELS 3 Zrotation Xrotation Yrotation
							JOINT RightHand
							{
								OFFSET	 0.000000	 0.000000	 0.360648
								CHANNELS 3 Zrotation Xrotation Yrotation
								JOINT RightHandIndex1
								{
									OFFSET	 0.000000	 0.000000	 0.069977
									CHANNELS 3 Zrotation Xrotation Yrotation
									JOINT RightHandIndex2
									{
										OFFSET	 0.000000	 0.000000	 0.052305
										CHANNELS 3 Zrotation Xrotation Yrotation
										JOINT RightHandIndex3
										{
											OFFSET	 0.009002	-0.000782	 0.042196
											CHANNELS 3 Zrotation Xrotation Yrotation
											End Site
											{
												OFFSET	 0.009002	-0.000782	 0.042196
											}
										}
									}
								}
							}
						}
					}
				}
			}
		}
	}
}
MOTION
Frames:    8
Frame Time: 0.03333334
-1.063769	-11.040670	 1.148863	-10.654750	 0.416765	 0.139886	 4.120881	-1.741005	 179.845800	 3.148374	-11.594570	 1.749879	 4.354856	 71.406410	 1.230548	-2.385833	 28.452760	 0.000004	-4.121233	-2.153045	-179.879800	-3.140193	-11.964010	-1.790653	-4.386740	 71.428390	-1.219508	 2.384659	 28.388700	-0.000001	-2.085313	 2.725772	 0.070518	-3.467154	-1.749284	-0.281997	-4.161986	-2.096912	-0.351108	-96.855680	 86.735770	-170.910800	 12.090980	 1.915943	-6.709803	-4.245853	-0.921638	-0.250992	-16.223940	-0.324198	-4.324866	-2.482367	 5.116409	 7.306710	-5.213516	-0.193813	 3.566525	-1.378229	 35.397820	-2.634230	-0.000002	-3.783157	-0.089647	-1.024007	 1.223019	 0.010930	 104.097500	 88.275240	 160.879200	-12.297030	 2.928372	 8.184141	 4.452765	-0.477583	 0.392409	 15.895390	-1.490632	 8.621503	 3.315085	 2.709412	-9.595269	 5.070815	-0.697434	-9.399699	-2.350882	 35.473990	 5.254307
-1.064124	-11.029100	 1.145007	-13.093850	 9.534709	 3.102182	 5.646305	-20.744770	 175.450000	-4.183966	-36.255640	-0.932191	-1.142288	 83.505690	-0.440502	-2.333938	 36.432220	-0.183807	-2.063015	-22.729680	-178.932300	-1.996565	-40.358960	-0.997729	-1.488504	 87.096470	 0.669842	 2.394213	 25.909500	-0.052784	-1.698162	 5.285755	-1.518316	-2.755730	 3.863135	-2.066790	-3.652326	 1.431739	-0.196102	-101.606800	 88.596530	-167.458600	 54.973510	 68.150600	-64.942910	-4.982409	-4.337156	-18.011470	 7.811062	-2.258250	-5.310219	-1.738981	-11.030780	 7.792048	-5.213516	-0.193813	 3.566525	-1.378229	 35.397820	-2.634230	 0.677571	 1.261294	 0.589893	-0.618975	 2.969126	 0.347405	 96.559490	 87.885670	 170.286600	-50.473750	 75.876540	 63.825110	-1.973197	-12.808670	 23.320560	-25.941650	-3.197462	 9.565688	-7.445525	-4.168094	-37.185610	 5.070815	-0.697434	-9.399699	-2.350882	 35.473990	 5.254307
-1.063711	-11.025320	 1.150703	-13.155710	 9.399544	 3.087471	 5.584122	-20.563620	 175.427700	-4.299178	-36.370540	-1.043787	-1.207132	 83.533350	-0.521503	-2.332283	 36.617470	-0.188403	-1.935117	-22.524800	-178.940800	-2.016702	-40.364430	-0.936286	-1.526092	 86.882030	 0.769469	 2.393667	 26.074460	-0.049324	-1.700868	 5.374053	-1.525976	-2.735518	 3.957518	-2.056681	-3.600688	 1.490699	-0.191479	-101.482800	 88.593190	-167.608500	 54.454990	 68.130460	-64.334530	-4.845097	-4.305079	-17.650740	 7.915503	-2.265867	-5.306716	-2.042341	-11.224320	 7.067188	-5.213516	-0.193813	 3.566525	-1.378229	 35.397820	-2.634230	 0.730312	 1.350442	 0.647290	-0.566177	 3.002250	 0.398025	 96.615390	 87.900250	 170.231200	-50.953130	 75.729670	 64.317070	-2.151177	-12.755250	 23.217990	-25.932730	-3.198049	 9.564726	-7.417120	-4.219775	-37.073510	 5.070815	-0.697434	-9.399699	-2.350882	 35.473990	 5.254307
-1.064704	-11.026670	 1.150324	-13.120170	 9.235054	 3.040297	 5.521455	-20.388630	 175.404600	-4.325990	-36.456020	-1.101974	-1.243002	 83.605000	-0.561911	-2.330410	 36.825970	-0.193598	-1.824885	-22.159020	-178.959900	-1.981808	-39.970750	-0.853489	-1.522094	 86.616910	 0.849129	 2.394493	 25.823720	-0.054583	-1.734346	 5.423170	-1.517540	-2.743837	 4.085144	-2.050102	-3.560302	 1.602123	-0.185875	-101.310300	 88.600440	-167.843800	 53.999980	 68.249200	-63.771690	-4.786777	-4.281754	-17.272680	 8.063096	-2.275372	-5.302281	-2.510939	-11.448340	 5.960209	-5.213516	-0.193813	 3.566525	-1.378229	 35.397820	-2.634230	 0.762150	 1.424011	 0.680120	-0.508023	 3.153617	 0.461601	 96.691750	 87.917760	 170.152800	-51.499310	 75.668840	 64.789860	-2.311051	-12.726070	 23.135370	-25.953790	-3.198538	 9.563782	-7.384288	-4.245417	-36.969960	 5.070815	-0.697434	-9.399699	-2.350882	 35.473990	 5.254307
-1.066243	-11.028520	 1.149979	-12.982620	 9.076393	 2.969532	 5.447045	-20.202020	 175.383600	-4.311046	-36.498480	-1.139488	-1.292190	 83.696370	-0.564541	-2.328468	 37.038080	-0.198899	-1.737235	-21.523950	-178.984200	-1.855349	-39.205680	-0.730470	-1.447775	 86.434980	 0.916264	 2.395331	 25.563260	-0.060031	-1.810795	 5.398087	-1.508829	-2.791433	 4.247831	-2.041465	-3.532608	 1.769109	-0.179290	-101.046200	 88.610970	-168.201600	 53.540000	 68.426250	-63.196000	-4.738769	-4.260250	-16.846730	 8.252958	-2.288536	-5.295781	-3.175539	-11.694140	 4.405565	-5.213516	-0.193813	 3.566525	-1.378229	 35.397820	-2.634230	 0.770338	 1.519579	 0.729343	-0.442517	 3.389466	 0.474993	 96.812640	 87.944240	 170.026900	-52.010730	 75.645140	 65.153180	-2.465463	-12.696480	 23.053130	-25.973770	-3.198972	 9.562923	-7.337442	-4.244932	-36.850270	 5.070815	-0.697434	-9.399699	-2.350882	 35.473990	 5.254307
-1.067915	-11.030470	 1.149770	-12.794290	 8.971636	 2.887839	 5.369072	-20.035020	 175.368000	-4.256894	-36.493630	-1.152353	-1.325503	 83.767720	-0.552625	-2.326708	 37.227590	-0.203661	-1.721825	-20.801940	-178.976400	-1.646779	-38.329560	-0.600259	-1.329230	 86.413950	 0.966740	 2.394260	 25.895620	-0.053078	-1.904564	 5.319293	-1.499449	-2.860425	 4.403516	-2.030159	-3.522589	 1.947239	-0.173315	-100.729800	 88.615770	-168.612400	 53.221170	 68.579630	-62.779980	-4.674701	-4.242696	-16.468840	 8.434676	-2.299415	-5.290172	-3.502408	-11.841610	 3.645164	-5.213516	-0.193813	 3.566525	-1.378229	 35.397820	-2.634230	 0.758093	 1.614533	 0.788646	-0.387750	 3.643835	 0.427705	 96.965860	 87.977550	 169.868500	-52.366870	 75.659380	 65.314010	-2.587994	-12.670560	 22.984520	-25.988160	-3.199326	 9.562360	-7.288505	-4.221924	-36.742080	 5.070815	-0.697434	-9.399699	-2.350882	 35.473990	 5.254307
-1.070018	-11.032670	 1.149658	-12.552840	 8.903937	 2.793962	 5.266153	-19.850760	 175.354900	-4.171746	-36.442020	-1.157702	-1.365924	 83.806560	-0.525665	-2.324870	 37.422830	-0.208576	-1.833642	-19.968450	-179.012200	-1.304309	-37.294040	-0.469220	-1.390499	 86.528080	 1.223974	 2.391685	 26.638340	-0.037435	-2.012059	 5.205020	-1.501175	-2.943563	 4.566502	-2.011860	-3.520494	 2.154068	-0.166866	-100.295900	 88.606890	-169.145700	 52.912570	 68.791870	-62.399020	-4.666859	-4.224229	-16.083890	 8.626562	-2.308450	-5.285230	-3.394347	-11.905490	 3.894314	-5.213516	-0.193813	 3.566525	-1.378229	 35.397820	-2.634230	 0.735332	 1.718915	 0.868066	-0.333019	 3.945408	 0.348206	 97.199250	 88.027510	 169.630100	-52.647080	 75.704910	 65.330470	-2.704124	-12.641690	 22.914060	-25.998340	-3.199605	 9.562061	-7.231133	-4.174700	-36.630280	 5.070815	-0.697434	-9.399699	-2.350882	 35.473990	 5.254307
-1.072008	-11.034340	 1.149641	-12.346100	 8.872187	 2.754765	 5.152293	-19.680560	 175.312500	-4.089701	-36.351160	-1.170182	-1.397635	 83.778370	-0.518061	-2.323385	 37.579510	-0.212540	-1.934645	-19.407260	-179.117700	-1.124734	-36.393480	-0.439381	-1.406415	 86.491620	 1.297241	 2.390486	 26.964590	-0.030522	-2.091272	 5.099607	-1.569373	-3.000237	 4.699384	-1.999467	-3.518517	 2.336322	-0.161183	-99.824910	 88.576600	-169.690000	 52.711540	 69.023320	-62.234320	-4.709762	-4.221649	-15.775740	 8.829370	-2.316674	-5.280688	-3.318823	-11.948510	 4.068150	-5.213516	-0.193813	 3.566525	-1.378229	 35.397820	-2.634230	 0.726797	 1.806539	 0.949353	-0.296456	 4.222716	 0.315270	 97.494130	 88.089820	 169.334300	-52.889330	 75.752560	 65.338460	-2.794052	-12.613420	 22.852480	-26.001140	-3.199827	 9.562004	-7.178231	-4.112828	-36.540690	 5.070815	-0.697434	-9.399699	-2.350882	 35.473990	 5.254307
